<svg viewBox="0 0 246 246" fill="none" xmlns="http://www.w3.org/2000/svg">
<g clip-path="url(#clip0_3920_117188)">
<path d="M196 81.4927V164.49L123.5 206L51 164.49V81.4927L123.5 40L196 81.4927Z" fill="#4380B9"/>
<path d="M51 164.49L123.5 205.997V123.001L51 164.49Z" fill="#F9CC20"/>
<path d="M123.5 40L51 81.4927L123.491 122.996L123.5 40Z" fill="#5099C7"/>
<path d="M123.5 123.001L196 164.49V81.4927L123.5 123.001Z" fill="#F9CF27"/>
<path d="M123.5 123.001V205.997L196 164.49L123.5 123.001Z" fill="#F7B813"/>
<path d="M166.899 119.024C166.899 121.703 166.201 124.332 164.873 126.663C163.548 128.992 161.575 131.027 159.082 132.453L127.499 150.53C126.65 151.017 126.016 151.676 125.572 152.453C125.129 153.227 124.893 154.121 124.893 155.011C124.893 155.889 125.112 156.755 125.593 157.585C126.086 158.428 126.749 159.055 127.532 159.496C128.315 159.935 129.215 160.169 130.113 160.169C130.998 160.167 131.872 159.952 132.707 159.475L137.219 156.893C139.711 155.467 142.897 156.312 144.335 158.783C145.773 161.254 144.92 164.413 142.428 165.838L137.918 168.421C135.472 169.824 132.763 170.502 130.113 170.499C127.411 170.499 124.759 169.807 122.408 168.489C120.057 167.176 118.006 165.22 116.57 162.75C115.154 160.324 114.47 157.638 114.472 155.011C114.472 152.332 115.17 149.703 116.498 147.372C117.823 145.043 119.796 143.008 122.29 141.582L153.872 123.505C154.723 123.016 155.355 122.359 155.801 121.581C156.244 120.806 156.48 119.912 156.48 119.022C156.48 118.144 156.261 117.278 155.78 116.448C155.287 115.605 154.624 114.978 153.841 114.537C153.058 114.098 152.158 113.864 151.26 113.864C150.376 113.866 149.501 114.081 148.666 114.558L103.549 140.382C101.102 141.784 98.3934 142.462 95.7434 142.46C93.0414 142.46 90.3897 141.768 88.0385 140.451C85.6872 139.138 83.6364 137.182 82.2003 134.711C80.785 132.286 80.1008 129.6 80.1025 126.973C80.1025 124.294 80.8006 121.665 82.1291 119.334C83.454 117.005 85.4267 114.97 87.9204 113.544L119.503 95.4671C120.352 94.9799 120.986 94.3205 121.43 93.544C121.873 92.7693 122.109 91.8758 122.109 90.9857C122.109 90.1077 121.89 89.2417 121.409 88.4119C120.916 87.5683 120.253 86.9416 119.47 86.5009C118.686 86.0619 117.787 85.8278 116.889 85.8278C116.004 85.8295 115.13 86.0447 114.295 86.5216L109.783 89.104C107.291 90.5295 104.105 89.6842 102.667 87.2137C101.229 84.7431 102.082 81.584 104.574 80.1585L109.083 77.5761C111.53 76.1729 114.239 75.4946 116.889 75.4981C119.591 75.4981 122.243 76.1901 124.594 77.5072C126.945 78.8208 128.996 80.7765 130.432 83.2471C131.848 85.6728 132.532 88.3585 132.53 90.9857C132.53 93.6646 131.832 96.2935 130.504 98.6245C129.179 100.954 127.206 102.989 124.712 104.414L93.13 122.491C92.2791 122.98 91.647 123.638 91.2007 124.416C90.7579 125.191 90.5217 126.084 90.5217 126.974C90.5217 127.852 90.7405 128.718 91.2215 129.548C91.7147 130.392 92.378 131.018 93.1612 131.459C93.9444 131.898 94.8439 132.132 95.7417 132.132C96.6256 132.131 97.5008 131.915 98.3361 131.439L143.455 105.614C145.901 104.213 148.609 103.535 151.258 103.536C153.961 103.536 156.612 104.228 158.963 105.545C161.315 106.859 163.366 108.815 164.802 111.285C166.217 113.711 166.901 116.397 166.899 119.024ZM94.738 97.7155C97.2299 96.29 98.0843 93.1309 96.6447 90.6603C95.2069 88.1898 92.0203 87.3428 89.5284 88.77C87.0365 90.1955 86.1839 93.3547 87.6217 95.8252C89.0613 98.2957 92.2478 99.1427 94.738 97.7155ZM152.26 148.285C149.769 149.71 148.914 152.869 150.354 155.34C151.793 157.81 154.978 158.657 157.47 157.23C159.962 155.805 160.815 152.645 159.377 150.175C157.937 147.704 154.751 146.857 152.26 148.285Z" fill="white"/>
<path d="M198.5 212C224.181 212 245 191.181 245 165.5C245 139.819 224.181 119 198.5 119C172.819 119 152 139.819 152 165.5C152 191.181 172.819 212 198.5 212Z" fill="#E8E8E8"/>
<path d="M220.09 148.958C217.797 148.959 215.538 149.526 213.516 150.608C212.763 148.728 211.534 147.076 209.95 145.814C208.366 144.551 206.482 143.722 204.481 143.407C202.48 143.092 200.432 143.301 198.537 144.016C196.641 144.73 194.964 145.924 193.669 147.481C191.869 144.537 189.038 142.367 185.727 141.394C182.416 140.421 178.861 140.714 175.754 142.216C172.647 143.719 170.21 146.323 168.917 149.523C167.624 152.722 167.567 156.289 168.757 159.528C168.955 160.07 168.757 159.971 168.33 160.263C168.053 160.454 167.782 160.654 167.526 160.852C165.407 162.574 163.965 164.989 163.454 167.671C162.943 170.353 163.395 173.129 164.73 175.51C166.066 177.891 168.2 179.724 170.755 180.685C173.31 181.647 176.123 181.675 178.697 180.765C179.287 183.135 180.612 185.258 182.48 186.83C184.349 188.403 186.667 189.344 189.103 189.52C191.539 189.697 193.969 189.099 196.045 187.812C198.12 186.525 199.736 184.615 200.662 182.355C203.372 183.814 206.552 184.138 209.501 183.253C212.449 182.369 214.926 180.35 216.386 177.64C216.496 177.443 216.601 177.234 216.699 177.011C216.908 176.558 216.775 176.393 217.332 176.505C217.725 176.585 218.113 176.649 218.496 176.693C220.378 176.911 222.284 176.742 224.099 176.197C225.913 175.651 227.597 174.741 229.047 173.522C230.497 172.303 231.683 170.8 232.531 169.106C233.38 167.413 233.874 165.564 233.983 163.672C234.092 161.781 233.813 159.887 233.164 158.107C232.515 156.328 231.509 154.699 230.208 153.322C228.907 151.944 227.339 150.847 225.599 150.097C223.859 149.348 221.985 148.961 220.09 148.962V148.958Z" fill="#009CDB"/>
<path d="M175.548 166.994C176.005 167.268 176.52 167.43 177.051 167.467C177.64 167.467 178.006 167.2 178.015 166.804C178.015 166.496 177.779 166.235 177.339 166.076L176.725 165.851C175.975 165.572 175.364 165.132 175.364 164.315C175.382 163.873 175.576 163.455 175.902 163.155C176.228 162.855 176.66 162.696 177.102 162.714H177.251C177.857 162.731 178.454 162.863 179.011 163.102C179.01 163.406 178.891 163.698 178.679 163.916C178.234 163.7 177.749 163.579 177.254 163.563C176.783 163.563 176.482 163.821 176.482 164.177C176.482 164.484 176.697 164.659 177.146 164.832L177.788 165.078C178.58 165.384 179.149 165.86 179.149 166.688C179.149 167.686 178.301 168.284 177.1 168.284C176.421 168.282 175.755 168.097 175.171 167.75C175.207 167.462 175.34 167.196 175.548 166.994Z" fill="white"/>
<path d="M184.073 168.238C183.886 168.211 183.708 168.135 183.558 168.019C183.408 167.903 183.29 167.75 183.216 167.575C182.793 168.021 182.212 168.282 181.597 168.303C181.19 168.317 180.794 168.169 180.496 167.891C180.198 167.613 180.023 167.228 180.009 166.821V166.726C180.009 165.498 180.9 164.948 182.067 164.948C182.411 164.949 182.756 164.975 183.097 165.025V164.607C183.097 163.931 182.789 163.652 182.217 163.652C181.636 163.688 181.066 163.826 180.534 164.06C180.342 163.835 180.234 163.551 180.226 163.255C180.928 162.953 181.681 162.786 182.445 162.763C182.654 162.741 182.866 162.761 183.068 162.82C183.27 162.88 183.458 162.979 183.621 163.111C183.785 163.244 183.921 163.407 184.022 163.592C184.122 163.777 184.185 163.98 184.207 164.19C184.221 164.311 184.22 164.433 184.205 164.555V166.751C184.183 166.918 184.2 167.088 184.253 167.247C184.306 167.407 184.394 167.553 184.512 167.673C184.431 167.905 184.277 168.103 184.073 168.238ZM183.099 166.795V165.777C182.792 165.746 182.436 165.735 182.135 165.735C181.901 165.701 181.663 165.76 181.474 165.901C181.284 166.042 181.158 166.252 181.123 166.486C181.115 166.542 181.112 166.6 181.115 166.657C181.105 166.749 181.114 166.843 181.141 166.932C181.167 167.022 181.211 167.105 181.269 167.177C181.328 167.25 181.4 167.31 181.482 167.354C181.564 167.399 181.654 167.427 181.746 167.436H181.833C182.077 167.422 182.315 167.358 182.533 167.248C182.751 167.137 182.944 166.983 183.099 166.795Z" fill="white"/>
<path d="M187.708 167.339C187.77 167.518 187.802 167.705 187.803 167.895C187.803 167.975 187.793 168.054 187.772 168.132C187.467 168.181 187.159 168.206 186.851 168.208C186.725 168.223 186.598 168.213 186.477 168.179C186.355 168.144 186.241 168.086 186.142 168.008C186.043 167.93 185.96 167.833 185.899 167.723C185.837 167.613 185.798 167.491 185.783 167.366C185.773 167.279 185.774 167.191 185.787 167.105V160.343L185.861 160.278H186.28C186.74 160.278 186.894 160.494 186.894 160.985V166.857C186.894 167.163 187.023 167.339 187.312 167.339H187.708Z" fill="white"/>
<path d="M189.641 165.873C189.684 166.764 189.971 167.409 190.87 167.409C191.392 167.395 191.903 167.255 192.359 167C192.541 167.198 192.663 167.443 192.712 167.707C192.117 168.108 191.415 168.322 190.698 168.322C189.004 168.322 188.488 166.991 188.488 165.556C188.488 163.959 189.238 162.757 190.728 162.757C191.281 162.744 191.815 162.951 192.215 163.332C192.615 163.713 192.848 164.237 192.861 164.789C192.864 164.877 192.86 164.965 192.851 165.052C192.855 165.337 192.831 165.621 192.777 165.9L189.641 165.873ZM189.641 165.068H191.791V164.927C191.791 164.177 191.484 163.553 190.719 163.553C190.046 163.553 189.693 164.122 189.641 165.065L189.641 165.068Z" fill="white"/>
<path d="M194.088 166.994C194.545 167.268 195.06 167.43 195.591 167.467C196.18 167.467 196.546 167.201 196.555 166.804C196.555 166.496 196.319 166.235 195.879 166.076L195.265 165.851C194.515 165.572 193.905 165.132 193.905 164.315C193.923 163.873 194.116 163.455 194.443 163.155C194.769 162.854 195.201 162.696 195.644 162.714H195.791C196.397 162.731 196.994 162.863 197.551 163.102C197.55 163.406 197.431 163.698 197.219 163.917C196.774 163.7 196.289 163.58 195.794 163.563C195.323 163.563 195.023 163.821 195.023 164.177C195.023 164.484 195.238 164.66 195.687 164.832L196.328 165.078C197.12 165.384 197.689 165.861 197.689 166.688C197.689 167.686 196.841 168.284 195.64 168.284C194.961 168.282 194.295 168.097 193.711 167.75C193.747 167.462 193.88 167.196 194.088 166.994Z" fill="white"/>
<path d="M203.026 160.1V160.287C203.019 160.331 203.01 160.375 202.998 160.419C202.987 160.463 202.972 160.507 202.955 160.549C202.942 160.583 202.924 160.615 202.9 160.643C202.893 160.655 202.882 160.664 202.871 160.67C202.859 160.677 202.846 160.68 202.832 160.681C202.796 160.678 202.761 160.67 202.728 160.656L202.581 160.604C202.515 160.583 202.448 160.565 202.381 160.551C202.297 160.534 202.211 160.526 202.126 160.527C201.973 160.524 201.822 160.551 201.68 160.607C201.559 160.662 201.453 160.747 201.374 160.853C201.276 160.98 201.2 161.122 201.149 161.273C201.082 161.469 201.029 161.669 200.993 161.873L200.888 162.416H202.116C202.136 162.416 202.156 162.42 202.174 162.427C202.192 162.435 202.208 162.447 202.221 162.462C202.251 162.505 202.265 162.557 202.261 162.61C202.265 162.656 202.265 162.702 202.261 162.748C202.257 162.796 202.247 162.844 202.23 162.889C202.219 162.934 202.204 162.979 202.185 163.021C202.168 163.06 202.147 163.097 202.123 163.132C202.103 163.163 202.076 163.19 202.046 163.212C202.021 163.231 201.991 163.242 201.96 163.242H200.73L199.689 168.392C199.633 168.695 199.54 168.99 199.413 169.27C199.308 169.5 199.162 169.708 198.982 169.885C198.816 170.047 198.615 170.17 198.396 170.247C198.155 170.329 197.901 170.368 197.647 170.364C197.497 170.368 197.348 170.353 197.201 170.321C197.125 170.308 197.052 170.281 196.986 170.241C196.969 170.221 196.957 170.199 196.95 170.174C196.944 170.142 196.944 170.11 196.95 170.078V169.995L196.97 169.875C196.975 169.83 196.986 169.785 197.001 169.743C197.013 169.699 197.027 169.656 197.044 169.614C197.058 169.579 197.076 169.547 197.1 169.518C197.108 169.507 197.119 169.498 197.131 169.492C197.143 169.486 197.157 169.482 197.171 169.482H197.253L197.339 169.5L197.446 169.518C197.5 169.523 197.553 169.523 197.606 169.518C197.757 169.522 197.907 169.494 198.046 169.438C198.168 169.384 198.274 169.3 198.354 169.193C198.449 169.066 198.523 168.923 198.572 168.772C198.638 168.571 198.692 168.365 198.732 168.158L199.724 163.214H198.95C198.933 163.215 198.915 163.212 198.899 163.205C198.883 163.198 198.869 163.188 198.858 163.174C198.831 163.13 198.819 163.078 198.824 163.026V162.91C198.828 162.863 198.835 162.815 198.845 162.769C198.855 162.722 198.868 162.676 198.885 162.631C198.901 162.588 198.922 162.548 198.947 162.51C198.969 162.478 198.995 162.449 199.024 162.425C199.052 162.402 199.087 162.389 199.122 162.391H199.883L200.033 161.635C200.089 161.335 200.183 161.044 200.313 160.769C200.421 160.539 200.569 160.331 200.75 160.154C200.92 159.994 201.122 159.872 201.342 159.795C201.581 159.714 201.831 159.675 202.083 159.679C202.176 159.673 202.269 159.673 202.362 159.679C202.452 159.688 202.542 159.702 202.63 159.721C202.704 159.737 202.777 159.759 202.848 159.786C202.895 159.8 202.939 159.824 202.978 159.856C203.003 159.88 203.022 159.91 203.032 159.943C203.042 159.995 203.039 160.049 203.026 160.1Z" fill="white"/>
<path d="M206.209 167.717C205.78 168.097 205.227 168.307 204.654 168.307C204.081 168.307 203.528 168.097 203.099 167.717C202.606 167.09 202.338 166.316 202.338 165.518C202.338 164.721 202.606 163.946 203.099 163.319C203.528 162.94 204.081 162.73 204.654 162.73C205.227 162.73 205.78 162.94 206.209 163.319C206.702 163.946 206.97 164.721 206.97 165.518C206.97 166.316 206.702 167.09 206.209 167.717ZM204.654 167.458C205.575 167.458 205.834 166.515 205.834 165.516C205.834 164.518 205.575 163.575 204.654 163.575C203.732 163.575 203.487 164.531 203.487 165.516C203.487 166.502 203.732 167.456 204.654 167.456V167.458Z" fill="white"/>
<path d="M208.387 162.801C208.624 162.851 208.842 162.967 209.015 163.136C209.188 163.305 209.309 163.52 209.364 163.756C209.471 163.471 209.664 163.227 209.915 163.056C210.166 162.885 210.464 162.796 210.768 162.801C210.959 162.802 211.15 162.823 211.336 162.866C211.338 163.233 211.246 163.595 211.069 163.917C210.925 163.882 210.777 163.865 210.629 163.864C210.38 163.873 210.138 163.955 209.935 164.099C209.731 164.244 209.574 164.445 209.484 164.678V168.174C209.303 168.206 209.12 168.22 208.937 168.217C208.751 168.221 208.564 168.207 208.381 168.174V164.488C208.392 164.287 208.362 164.085 208.294 163.896C208.226 163.706 208.121 163.533 207.984 163.384C208.053 163.152 208.194 162.948 208.387 162.801Z" fill="white"/>
<path d="M213.877 163.584C213.201 163.584 212.805 164.239 212.805 165.547C212.805 166.855 213.245 167.391 214.015 167.391C214.494 167.359 214.949 167.171 215.312 166.856C215.542 167.012 215.71 167.243 215.786 167.511C215.269 168.022 214.571 168.307 213.844 168.304C212.308 168.304 211.656 167.029 211.656 165.538C211.656 163.553 212.772 162.718 213.896 162.718C214.356 162.666 214.818 162.799 215.181 163.087C215.543 163.374 215.777 163.794 215.831 164.254V164.328C215.831 164.703 215.671 164.942 215.271 164.942C215.117 164.945 214.962 164.931 214.811 164.899C214.842 164.217 214.661 163.584 213.877 163.584Z" fill="white"/>
<path d="M217.778 165.873C217.822 166.764 218.11 167.409 219.008 167.409C219.53 167.395 220.041 167.255 220.497 167C220.679 167.198 220.802 167.443 220.852 167.707C220.256 168.108 219.554 168.321 218.836 168.322C217.143 168.322 216.626 166.991 216.626 165.556C216.626 163.959 217.376 162.757 218.866 162.757C219.418 162.744 219.953 162.951 220.353 163.332C220.753 163.713 220.986 164.237 220.999 164.789C221.002 164.877 220.998 164.965 220.989 165.052C220.993 165.337 220.968 165.621 220.915 165.9L217.778 165.873ZM217.778 165.068H219.93V164.927C219.93 164.177 219.622 163.553 218.857 163.553C218.187 163.553 217.834 164.122 217.778 165.065V165.068Z" fill="white"/>
</g>
<defs>
<clipPath id="clip0_3920_117188">
<rect width="246" height="246" fill="white"/>
</clipPath>
</defs>
</svg>
